<svg id="Layer_1" data-name="Layer 1" xmlns="http://www.w3.org/2000/svg" viewBox="0 0 23.53 24"><defs><style>.cls-1{fill:#020202;}</style></defs><title>Icons_Monish</title><path class="cls-1" d="M7.36,8.13A4.45,4.45,0,0,1,8.86,4.6a4.2,4.2,0,0,1,2.91-1.1,4.21,4.21,0,0,1,3.15,1.35,4.33,4.33,0,0,1,1.22,3.28h1.69a.55.55,0,0,1,.61.54l1,6.51c.18,1.2.38,2.4.56,3.61a1.48,1.48,0,0,1-1.5,1.71H5a1.5,1.5,0,0,1-1.48-1.07,2.05,2.05,0,0,1,0-.89l.72-4.68c.23-1.55.47-3.1.71-4.65,0-.19.06-.38.08-.57a.53.53,0,0,1,.54-.51H7.36Zm.3,1.4H6.44c-.08.49-.15,1-.23,1.44L5,18.32a.44.44,0,0,0,.08.29.43.43,0,0,0,.39.15H18a.76.76,0,0,0,.21,0,.36.36,0,0,0,.26-.4c-.15-.89-.29-1.79-.43-2.68-.28-1.72-.55-3.43-.83-5.14-.05-.32-.1-.65-.16-1H15.83M8.65,8.14h6.24a3,3,0,0,0-1.4-2.7,3,3,0,0,0-3.45,0,3,3,0,0,0-1.39,2.7Z"/></svg>